<svg width="680" height="155" viewBox="0 0 680 155" xmlns="http://www.w3.org/2000/svg" font-family="system-ui, -apple-system, sans-serif">
  <defs>
    <marker id="arrow" viewBox="0 0 10 10" refX="8" refY="5" markerWidth="6" markerHeight="6" orient="auto-start-reverse">
      <path d="M2 1L8 5L2 9" fill="none" stroke="#888780" stroke-width="1.5" stroke-linecap="round" stroke-linejoin="round"/>
    </marker>
  </defs>

  <rect x="40" y="28" width="106" height="56" rx="8" fill="#FAECE7" stroke="#993C1D" stroke-width="0.5"/>
  <text x="93" y="48" text-anchor="middle" dominant-baseline="central" font-size="14" font-weight="500" fill="#712B13">Observe</text>
  <text x="93" y="68" text-anchor="middle" dominant-baseline="central" font-size="12" fill="#993C1D">Repetitive?</text>

  <line x1="146" y1="56" x2="162" y2="56" stroke="#888780" stroke-width="1.5" marker-end="url(#arrow)"/>

  <rect x="162" y="28" width="106" height="56" rx="8" fill="#E1F5EE" stroke="#0F6E56" stroke-width="0.5"/>
  <text x="215" y="48" text-anchor="middle" dominant-baseline="central" font-size="14" font-weight="500" fill="#085041">Capture</text>
  <text x="215" y="68" text-anchor="middle" dominant-baseline="central" font-size="12" fill="#0F6E56">SKILL.md</text>

  <line x1="268" y1="56" x2="284" y2="56" stroke="#888780" stroke-width="1.5" marker-end="url(#arrow)"/>

  <rect x="284" y="28" width="106" height="56" rx="8" fill="#E1F5EE" stroke="#0F6E56" stroke-width="0.5"/>
  <text x="337" y="48" text-anchor="middle" dominant-baseline="central" font-size="14" font-weight="500" fill="#085041">Execute</text>
  <text x="337" y="68" text-anchor="middle" dominant-baseline="central" font-size="12" fill="#0F6E56">Agent runs</text>

  <line x1="390" y1="56" x2="406" y2="56" stroke="#888780" stroke-width="1.5" marker-end="url(#arrow)"/>

  <rect x="406" y="28" width="106" height="56" rx="8" fill="#E1F5EE" stroke="#0F6E56" stroke-width="0.5"/>
  <text x="459" y="48" text-anchor="middle" dominant-baseline="central" font-size="14" font-weight="500" fill="#085041">Refine</text>
  <text x="459" y="68" text-anchor="middle" dominant-baseline="central" font-size="12" fill="#0F6E56">Skill grows</text>

  <line x1="512" y1="56" x2="528" y2="56" stroke="#888780" stroke-width="1.5" marker-end="url(#arrow)"/>

  <rect x="528" y="28" width="110" height="56" rx="8" fill="#EEEDFE" stroke="#534AB7" stroke-width="0.5"/>
  <text x="583" y="48" text-anchor="middle" dominant-baseline="central" font-size="14" font-weight="500" fill="#3C3489">Compose</text>
  <text x="583" y="68" text-anchor="middle" dominant-baseline="central" font-size="12" fill="#534AB7">Chain skills</text>

  <line x1="93" y1="84" x2="93" y2="102" stroke="#B4B2A9" stroke-width="0.5" stroke-dasharray="3 3"/>
  <text x="93" y="116" text-anchor="middle" font-size="12" fill="#888780">Most critical phase</text>
  <text x="93" y="133" text-anchor="middle" font-size="12" fill="#888780">Human judgment lives here</text>
</svg>
