<svg width="680" height="270" viewBox="0 0 680 270" xmlns="http://www.w3.org/2000/svg" font-family="system-ui, -apple-system, sans-serif">
  <text x="180" y="28" text-anchor="middle" font-size="14" font-weight="500" fill="#3d3d3a">Without Observe</text>
  <text x="500" y="28" text-anchor="middle" font-size="14" font-weight="500" fill="#3d3d3a">With Observe</text>

  <rect x="40" y="48" width="280" height="160" rx="8" fill="#FAECE7" stroke="#993C1D" stroke-width="0.5"/>

  <rect x="55" y="63" width="78" height="32" rx="4" fill="#F5C4B3" stroke="#993C1D" stroke-width="0.5"/>
  <text x="94" y="79" text-anchor="middle" dominant-baseline="central" font-size="11" fill="#712B13">api-gen</text>

  <rect x="141" y="63" width="78" height="32" rx="4" fill="#F5C4B3" stroke="#993C1D" stroke-width="0.5"/>
  <text x="180" y="79" text-anchor="middle" dominant-baseline="central" font-size="11" fill="#712B13">api-new</text>

  <rect x="227" y="63" width="78" height="32" rx="4" fill="#F5C4B3" stroke="#993C1D" stroke-width="0.5"/>
  <text x="266" y="79" text-anchor="middle" dominant-baseline="central" font-size="11" fill="#712B13">api-create</text>

  <rect x="55" y="112" width="78" height="32" rx="4" fill="#F5C4B3" stroke="#993C1D" stroke-width="0.5"/>
  <text x="94" y="128" text-anchor="middle" dominant-baseline="central" font-size="11" fill="#712B13">doc-fix</text>

  <rect x="141" y="112" width="78" height="32" rx="4" fill="#F5C4B3" stroke="#993C1D" stroke-width="0.5"/>
  <text x="180" y="128" text-anchor="middle" dominant-baseline="central" font-size="11" fill="#712B13">doc-tmp</text>

  <rect x="227" y="112" width="78" height="32" rx="4" fill="#F5C4B3" stroke="#993C1D" stroke-width="0.5"/>
  <text x="266" y="128" text-anchor="middle" dominant-baseline="central" font-size="11" fill="#712B13">doc-help</text>

  <rect x="55" y="161" width="78" height="32" rx="4" fill="#F5C4B3" stroke="#993C1D" stroke-width="0.5"/>
  <text x="94" y="177" text-anchor="middle" dominant-baseline="central" font-size="11" fill="#712B13">ep-fix</text>

  <rect x="141" y="161" width="78" height="32" rx="4" fill="#F5C4B3" stroke="#993C1D" stroke-width="0.5"/>
  <text x="180" y="177" text-anchor="middle" dominant-baseline="central" font-size="11" fill="#712B13">tmp-1</text>

  <rect x="227" y="161" width="78" height="32" rx="4" fill="#F5C4B3" stroke="#993C1D" stroke-width="0.5"/>
  <text x="266" y="177" text-anchor="middle" dominant-baseline="central" font-size="11" fill="#712B13">fix-stuff</text>

  <text x="180" y="232" text-anchor="middle" font-size="12" fill="#5F5E5A">Capability fragments</text>
  <text x="180" y="250" text-anchor="middle" font-size="12" fill="#888780">Nobody knows which to use</text>

  <rect x="360" y="48" width="280" height="160" rx="8" fill="#E1F5EE" stroke="#0F6E56" stroke-width="0.5"/>

  <rect x="375" y="63" width="120" height="56" rx="6" fill="#9FE1CB" stroke="#0F6E56" stroke-width="0.5"/>
  <text x="435" y="91" text-anchor="middle" dominant-baseline="central" font-size="13" font-weight="500" fill="#085041">endpoint-gen</text>

  <rect x="505" y="63" width="120" height="56" rx="6" fill="#9FE1CB" stroke="#0F6E56" stroke-width="0.5"/>
  <text x="565" y="91" text-anchor="middle" dominant-baseline="central" font-size="13" font-weight="500" fill="#085041">vuln-scan</text>

  <rect x="375" y="137" width="120" height="56" rx="6" fill="#9FE1CB" stroke="#0F6E56" stroke-width="0.5"/>
  <text x="435" y="165" text-anchor="middle" dominant-baseline="central" font-size="13" font-weight="500" fill="#085041">doc-gen</text>

  <rect x="505" y="137" width="120" height="56" rx="6" fill="#9FE1CB" stroke="#0F6E56" stroke-width="0.5"/>
  <text x="565" y="165" text-anchor="middle" dominant-baseline="central" font-size="13" font-weight="500" fill="#085041">test-scaffold</text>

  <text x="500" y="232" text-anchor="middle" font-size="12" fill="#5F5E5A">Capability compounds</text>
  <text x="500" y="250" text-anchor="middle" font-size="12" fill="#888780">Each skill earns its place</text>
</svg>
